<?xml version="1.0" encoding="UTF-8" standalone="no"?>
<svg
   fill="#000000"
   height="200px"
   width="200px"
   version="1.1"
   id="Layer_1"
   viewBox="0 0 64 64"
   enable-background="new 0 0 64 64"
   xml:space="preserve"
   sodipodi:docname="Rocket.svg"
   inkscape:version="1.3.2 (091e20e, 2023-11-25, custom)"
   inkscape:export-filename="Rocket_256x256.png"
   inkscape:export-xdpi="122.88"
   inkscape:export-ydpi="122.88"
   xmlns:inkscape="http://www.inkscape.org/namespaces/inkscape"
   xmlns:sodipodi="http://sodipodi.sourceforge.net/DTD/sodipodi-0.dtd"
   xmlns="http://www.w3.org/2000/svg"
   xmlns:svg="http://www.w3.org/2000/svg">
  <defs
   id="defs6">
    <linearGradient
   id="flameLinearGradient"
   gradientUnits="objectBoundingBox"
   x1="0.5"
   y1="0"
   x2="0.5"
   y2="1">
        <stop
   offset="0%"
   style="stop-color:#FFFFFF; stop-opacity:1"
   id="stop1" />
        <stop
   offset="15%"
   style="stop-color:#FFFFAA; stop-opacity:1"
   id="stop2" />
        <stop
   offset="40%"
   style="stop-color:#FFCC00; stop-opacity:1"
   id="stop3" /> 
        <stop
   offset="75%"
   style="stop-color:#FF6A00; stop-opacity:1"
   id="stop4" /> 
        <stop
   offset="100%"
   style="stop-color:#DD0000; stop-opacity:1"
   id="stop5" /> 
    </linearGradient>
    {/* Gradient for Green Metallic Rocket Body - now diagonal */}
    <linearGradient
   id="greenMetallicGradient"
   gradientUnits="userSpaceOnUse"
   x1="36.322666"
   y1="41.413063"
   x2="36.322666"
   y2="3.7892895"
   gradientTransform="scale(1.0015688,0.99843368)"> 
        {/* Diagonal gradient from top-left to bottom-right to simulate shine */}
        <stop
   offset="0%"
   style="stop-color:#3E5E4A; stop-opacity:1"
   id="gm_stop1" /> {/* Darker edge */}
        <stop
   offset="0.37504581"
   style="stop-color:#6A8A7A; stop-opacity:1"
   id="gm_stop2" /> {/* Mid-tone */}
        <stop
   offset="0.7070688"
   style="stop-color:#8FB09B; stop-opacity:1"
   id="gm_stop3" /> {/* Highlight */}
        <stop
   offset="0.85919416"
   style="stop-color:#6A8A7A; stop-opacity:1"
   id="gm_stop4" /> {/* Mid-tone */}
        <stop
   offset="100%"
   style="stop-color:#3E5E4A; stop-opacity:1"
   id="gm_stop5" /> {/* Darker edge */}
    </linearGradient>
  </defs>
  <sodipodi:namedview
   id="namedview6"
   pagecolor="#505050"
   bordercolor="#ffffff"
   borderopacity="1"
   inkscape:showpageshadow="0"
   inkscape:pageopacity="0"
   inkscape:pagecheckerboard="1"
   inkscape:deskcolor="#505050"
   showgrid="false"
   inkscape:lockguides="false"
   showguides="true"
   inkscape:zoom="9.455"
   inkscape:cx="100"
   inkscape:cy="100"
   inkscape:window-width="3720"
   inkscape:window-height="2126"
   inkscape:window-x="-11"
   inkscape:window-y="-11"
   inkscape:window-maximized="1"
   inkscape:current-layer="Icon" />
    
  <g
   id="Icon">
      <!-- original scale: 2.56 translate: 10,15  -->
    <g
   id="Flame"
   transform="translate(19.4306115, 44.4255985) scale(3.35)">
       <path
   d="M0 0 m-1 -1 c0 0 -1.45312 0.9531 -2.5 2 c-1 1 -2 4.5 -2 4.5 c0 0 3.5 -1 4.5 -2 c1 -1 2 -2.5 2 -2.5"
   fill="url(#flameLinearGradient)"
   stroke="#FFA500"
   stroke-width="0.390625"
   id="path5" />
    </g>
    <g
   id="Rocket">
      {/* Main outline/silhouette of the rocket - now with green metallic gradient */}
      <path
   d="m 63.999954,8.8992481 c 0,-2.7851996 -0.793999,-4.9892998 -2.359398,-6.5497999 -6.284202,-6.2607996 -22.806602,0.3965004 -37.621101,15.1610998 -0.5383,0.5366 -1.030298,1.1086 -1.503399,1.694801 -0.1553,-0.0642 -0.333999,-0.121601 -0.539499,-0.169401 -4.266602,-0.997099 -17.9600012,1.329101 -21.9463007,17.2549 -0.1025887,0.408199 0.0615,0.835899 0.4101,1.0713 0.169,0.1152 0.3643113,0.171799 0.5596,0.171799 0.206,0 0.4121,-0.0634 0.5869,-0.190399 5.4105997,-3.924801 9.7511997,-5.503399 13.5403007,-4.922299 -0.261489,0.474098 -0.526901,0.936501 -0.801001,1.378399 -0.245199,0.3955 -0.185599,0.9072 0.143512,1.235302 l 1.569088,1.563999 -2.9372,2.9263 c -0.188499,0.1875 -0.293999,0.442299 -0.293999,0.708001 0,0.265598 0.1055,0.5205 0.293999,0.708 l 9.829112,9.796798 c 0.195288,0.194401 0.450089,0.292 0.706,0.292 0.255888,0 0.510788,-0.0976 0.706089,-0.292 l 2.941099,-2.931598 1.5735,1.568397 c 0.193401,0.192303 0.448312,0.292 0.7061,0.292 0.180599,0 0.362301,-0.0489 0.524401,-0.148498 0.413299,-0.254902 0.842298,-0.502499 1.283699,-0.746102 0.650902,3.8079 -0.9258,8.176102 -4.913599,13.637703 -0.248001,0.339897 -0.2568,0.798798 -0.0225,1.147499 0.188499,0.281201 0.502001,0.442398 0.830101,0.442398 0.08011,0 0.161112,-0.0098 0.241199,-0.0293 15.940499,-3.963898 18.295914,-17.609398 17.3135,-21.8653 -0.0601,-0.2597 -0.138699,-0.464199 -0.2239,-0.6455 0.635498,-0.502197 1.2547,-1.026798 1.833313,-1.6035 C 57.103455,29.218548 63.999954,17.066248 63.999954,8.8992481 Z"
   id="outline"
   fill="#304239"
   stroke="none" /> 
      {/* Main fuselage body panel / Nose cone - now with green metallic gradient */}
      <path
   d="m 34.689354,44.865048 c -1.758686,0.846702 -3.433598,1.651401 -4.970686,2.543899 L 16.436457,34.17165 c 0.717298,-1.228203 1.380399,-2.562102 2.052,-3.939902 l 4.060798,-7.6671 c 0.849901,-1.3156 1.7915,-2.5507 2.8823,-3.6381 13.552801,-13.5077996 29.485399,-20.4501995 34.7969,-15.1610994 1.1758,1.1718998 1.771499,2.8993998 1.771499,5.1337996 0,7.5449008 -6.825199,19.4169998 -16.982399,29.5410018 -2.829101,2.819298 -6.641601,4.652298 -10.328201,6.424798 z"
   id="body"
   fill="url(#greenMetallicGradient)"
   stroke="none"
   style="fill:url(#greenMetallicGradient)" /> 
      {/* Fins - can be a solid contrasting metallic or a simpler gradient if desired */}
      <path
   d="m 41.533153,50.573048 c -1.546897,3.583 -4.841796,8.148399 -11.836898,10.651401 3.246101,-5.069401 4.393501,-9.338901 3.570301,-13.2295 l 9.673797,-5.089901 c 0.173802,1.314499 0.0469,4.298901 -1.4072,7.668 z"
   id="fin1"
   fill="#5A7A6A" />{/* Slightly different solid green for fins, or use gradient */}
         stroke=&quot;none&quot; /&gt;
      <path
   d="m 23.636667,48.617947 -8.412111,-8.384697 2.230499,-2.221703 7.2675,7.242302 1.1446,1.140499 z"
   id="tail"
   fill="#808080"
   stroke="none" />
      <path
   d="m 16.057556,30.548649 c -3.901399,-0.8223 -8.1884993,0.3213 -13.2792995,3.5625 2.5039001,-6.9482 7.0644999,-10.230501 10.6426005,-11.7764 2.6826,-1.158201 5.123998,-1.482401 6.686498,-1.482401 0.419001,0 0.773401,0.0234 1.053702,0.0596 z"
   id="fin2"
   fill="#5A7A6A"
   stroke="none" />
      {/* Window */}
      <path
   d="M42.724556,12.8533487c-1.1395988,1.1337996-1.767601,2.6426001-1.767601,4.2480001 c0,1.6064987,0.6280022,3.1152992,1.767601,4.2490997c1.1748009,1.1688995,2.7178001,1.7539005,4.2607002,1.7539005 c1.5429993,0,3.0859985-0.585001,4.2598-1.7539005c1.139698-1.1338005,1.766613-2.642601,1.766613-4.2490997 c0-1.6054001-0.626915-3.1142006-1.766613-4.2480001C48.8974533,10.5154486,45.0741539,10.5154486,42.724556,12.8533487z M49.8349533,19.9324493c-1.5722847,1.5643997-4.1279984,1.5643997-5.7001991,0 c-0.7588005-0.7559013-1.1777992-1.7608013-1.1777992-2.8311005c0-1.0692997,0.4189987-2.0742006,1.1777992-2.8301001 c0.7861023-0.7821999,1.8183022-1.1728001,2.850502-1.1728001c1.032299,0,2.0634995,0.3906002,2.8496971,1.1728001 c0.7587128,0.7558994,1.1767159,1.7608004,1.1767159,2.8301001C51.0116692,18.171648,50.5936661,19.176548,49.8349533,19.9324493z"
   id="window"
   fill="#457B9D"
   stroke="none" /> 
    </g>
  </g>
</svg>
